<?xml version="1.0" encoding="utf-8"?>
<!-- Generator: Adobe Illustrator 23.0.3, SVG Export Plug-In . SVG Version: 6.00 Build 0)  -->
<svg version="1.1" id="Capa_1" xmlns="http://www.w3.org/2000/svg" xmlns:xlink="http://www.w3.org/1999/xlink" x="0px" y="0px"
	 viewBox="0 0 512 512" style="enable-background:new 0 0 512 512;" xml:space="preserve">
<style type="text/css">
	.st0{fill:#3F5B58;}
	.st1{fill:#FFFFFF;}
</style>
<circle class="st0" cx="256.9" cy="256.9" r="225"/>
<path class="st1" d="M182.2,150.3L182.2,150.3c-4.3-3.9-10-6.3-16.2-6.3c-13.2,0-24,10.8-24,24c0,7,3,13.2,7.8,17.6l0,0.1l76.7,70.3
	l-76.7,70.3l0,0.1C145,330.8,142,337,142,344c0,13.2,10.8,24,24,24c6.3,0,11.9-2.4,16.2-6.4l0,0.1l96-88c4.9-4.6,7.8-11,7.8-17.7
	c0-6.7-2.8-13.1-7.8-17.7L182.2,150.3z"/>
<path class="st1" d="M233.8,238.3c-4.9,4.6-7.8,11-7.8,17.7c0,6.7,2.8,13.1,7.8,17.7l96,88l0-0.1c4.3,3.9,9.9,6.4,16.2,6.4
	c13.2,0,24-10.8,24-24c0-7-3-13.2-7.8-17.6l0-0.1L285.5,256l76.7-70.3l0-0.1c4.8-4.4,7.8-10.6,7.8-17.6c0-13.2-10.8-24-24-24
	c-6.3,0-11.9,2.4-16.2,6.4l0-0.1L233.8,238.3z"/>
</svg>
