<svg xmlns="http://www.w3.org/2000/svg" viewBox="0 0 44.31 75.92"><defs><style>.cls-1,.cls-2{fill:none;stroke:#231f20;stroke-miterlimit:10;}.cls-1{stroke-width:3px;}.cls-2{stroke-width:2px;}.cls-3{font-size:19.22px;fill:#fff;font-family:Verdana, Verdana;}</style></defs><title>blacktree_1</title><g id="Lag_2" data-name="Lag 2"><g id="Lag_1-2" data-name="Lag 1"><line class="cls-1" x1="22.16" y1="75.92" x2="22.16" y2="51.37"/><line class="cls-2" x1="21.25" y1="53" x2="26.73" y2="47.52"/><line class="cls-2" x1="21.7" y1="51.92" x2="18.64" y2="47.62"/><path d="M22.16,48.27s0,0,0,.06c.06,1.55,4.72,2.7,7,2.92,3.95.38,10.33-1,13.37-6.37,2.28-4,2.35-9.62,0-12.25a15,15,0,0,0-4.14-3,14.63,14.63,0,0,0-2-.84l3.12-3.87A10.93,10.93,0,0,0,41,19.63c0-.95,0-5.15-3.13-7.25a9.09,9.09,0,0,0-3.36-1.11,8.52,8.52,0,0,0-.91-.1l.11-2.54a6.07,6.07,0,0,0-1.49-3,6.62,6.62,0,0,0-5.11-1.92A5.52,5.52,0,0,0,24.82,1,16.27,16.27,0,0,0,23.23.38c-.45-.17-.82-.3-1.07-.38V44.5C22.17,46.1,22.17,47.33,22.16,48.27Z"/><path d="M22.15,48.27s0,0,0,.06c-.06,1.55-4.72,2.7-7,2.92-3.95.38-10.33-1-13.37-6.38-2.28-4-2.35-9.61,0-12.25a15.22,15.22,0,0,1,4.14-3,14.63,14.63,0,0,1,2-.84L4.74,24.87a10.86,10.86,0,0,1-1.38-5.25c0-.94,0-5.14,3.13-7.25a9.32,9.32,0,0,1,3.36-1.1,8.52,8.52,0,0,1,.91-.1l-.11-2.55a6.15,6.15,0,0,1,1.49-3,6.64,6.64,0,0,1,5.11-1.91A5.52,5.52,0,0,1,19.49,1c.22-.13.94-.38,1.59-.62.45-.17.82-.3,1.07-.38V44.5C22.14,46.1,22.14,47.33,22.15,48.27Z"/><text class="cls-3" transform="translate(10.07 34.53)">96</text></g></g></svg>